<svg width="20" height="20" viewBox="0 0 20 20" fill="none" xmlns="http://www.w3.org/2000/svg">
<path d="M14.3333 0.25C15.7699 0.25 17.1477 0.820683 18.1635 1.8365C19.1793 2.85233 19.75 4.23008 19.75 5.66667V14.3333C19.75 15.7699 19.1793 17.1477 18.1635 18.1635C17.1477 19.1793 15.7699 19.75 14.3333 19.75H5.66667C4.23008 19.75 2.85233 19.1793 1.8365 18.1635C0.820683 17.1477 0.25 15.7699 0.25 14.3333V5.66667C0.25 4.23008 0.820683 2.85233 1.8365 1.8365C2.85233 0.820683 4.23008 0.25 5.66667 0.25H14.3333ZM10 5.66667C8.85073 5.66667 7.74853 6.12321 6.93587 6.93587C6.12321 7.74853 5.66667 8.85073 5.66667 10C5.66667 11.1493 6.12321 12.2515 6.93587 13.0641C7.74853 13.8768 8.85073 14.3333 10 14.3333C11.1493 14.3333 12.2515 13.8768 13.0641 13.0641C13.8768 12.2515 14.3333 11.1493 14.3333 10C14.3333 8.85073 13.8768 7.74853 13.0641 6.93587C12.2515 6.12321 11.1493 5.66667 10 5.66667ZM10 7.83333C10.5746 7.83333 11.1257 8.06161 11.5321 8.46794C11.9384 8.87426 12.1667 9.42536 12.1667 10C12.1667 10.5746 11.9384 11.1257 11.5321 11.5321C11.1257 11.9384 10.5746 12.1667 10 12.1667C9.42536 12.1667 8.87426 11.9384 8.46794 11.5321C8.06161 11.1257 7.83333 10.5746 7.83333 10C7.83333 9.42536 8.06161 8.87426 8.46794 8.46794C8.87426 8.06161 9.42536 7.83333 10 7.83333ZM14.875 4.04167C14.5877 4.04167 14.3121 4.1558 14.109 4.35897C13.9058 4.56213 13.7917 4.83768 13.7917 5.125C13.7917 5.41232 13.9058 5.68787 14.109 5.89103C14.3121 6.0942 14.5877 6.20833 14.875 6.20833C15.1623 6.20833 15.4379 6.0942 15.641 5.89103C15.8442 5.68787 15.9583 5.41232 15.9583 5.125C15.9583 4.83768 15.8442 4.56213 15.641 4.35897C15.4379 4.1558 15.1623 4.04167 14.875 4.04167Z" fill="white"/>
</svg>
