<svg width="230" height="83" viewBox="0 0 230 83" fill="none" xmlns="http://www.w3.org/2000/svg">
<mask id="mask0_223_852" style="mask-type:luminance" maskUnits="userSpaceOnUse" x="0" y="0" width="230" height="83">
<path d="M230 0H0V82.4858H230V0Z" fill="white"/>
</mask>
<g mask="url(#mask0_223_852)">
<path d="M34.0802 6.04217C24.6727 4.98503 15.4397 9.79549 10.9299 18.2623C15.8179 9.44634 26.496 5.1887 36.3109 8.67046C39.4726 9.79549 42.1979 11.58 44.38 13.8398C33.314 18.272 25.0218 28.5815 23.761 41.2768C23.47 44.2155 23.5573 47.1056 24.0132 49.8891C13.3448 45.8739 7.80696 34.0126 11.6379 23.2182C12.0646 22.0059 11.4148 20.6869 10.2025 20.2602C8.99018 19.8334 7.67118 20.4638 7.24445 21.6762C2.93831 33.8187 9.29083 47.1541 21.4334 51.4603C22.4517 51.8191 23.4797 52.1101 24.5078 52.3234C27.3494 64.078 36.5242 73.5825 48.5504 76.6182C37.2516 73.5631 28.843 64.0974 26.9615 52.7017C36.2527 53.6133 45.3402 48.8126 49.7918 40.4525C45.282 48.5798 35.8453 52.8084 26.6996 50.6941C26.5251 48.8029 26.5251 46.8632 26.719 44.9041C27.9605 32.4124 36.7667 22.4908 48.1333 19.2127C50.5386 24.1105 51.0429 29.9199 49.0741 35.4674C48.6474 36.6797 49.2681 38.0181 50.4901 38.4449C51.7024 38.8716 53.0408 38.2509 53.4675 37.0289C55.737 30.6376 55.0387 23.9165 52.1194 18.3593C54.4471 18.0295 56.8426 17.9713 59.2866 18.2138C61.1099 18.3981 62.749 17.05 62.9333 15.2266C63.1175 13.4033 61.7694 11.7837 59.9461 11.6091C55.7758 11.1921 51.7218 11.5994 47.9103 12.6468C45.5438 10.2998 42.6343 8.428 39.2786 7.24478C37.5717 6.63378 35.8162 6.23614 34.0802 6.04217Z" fill="white"/>
</g>
<mask id="mask1_223_852" style="mask-type:luminance" maskUnits="userSpaceOnUse" x="0" y="0" width="230" height="83">
<path d="M230 0H0V82.4858H230V0Z" fill="white"/>
</mask>
<g mask="url(#mask1_223_852)">
<path d="M210.612 30.88H222.706V42.0624H224.113V18.0004H222.706V29.5513H210.612V30.88ZM210.03 29.561V9.42695H208.624V42.0624H210.03V30.88V29.561ZM191.603 42.0236C193.863 41.8878 195.938 41.3447 197.81 40.404C199.963 39.2983 201.767 37.7369 203.232 35.7293L202.281 34.9049C200.953 36.7282 199.284 38.1636 197.267 39.2111C195.531 40.0936 193.621 40.5882 191.555 40.7046L191.603 42.0236ZM189.072 41.9848L189.159 40.6561C185.105 40.3846 181.866 38.697 179.47 35.6032C177.182 32.7325 176.037 29.2701 176.037 25.2064C176.037 23.0824 176.386 21.2397 177.075 19.6783C177.763 18.1168 178.801 16.6038 180.178 15.1394C182.942 12.2395 186.385 10.7944 190.527 10.7944C193.039 10.7944 195.298 11.3376 197.316 12.4141C199.333 13.4906 200.972 14.9939 202.243 16.9239L203.232 16.1383C201.855 14.0434 200.06 12.3947 197.849 11.2115C195.754 10.0767 193.378 9.52393 190.73 9.55303C188.49 9.55303 186.395 9.93127 184.436 10.6878C182.477 11.4442 180.751 12.6178 179.257 14.1889C177.763 15.7892 176.638 17.4476 175.882 19.1545C175.125 20.8615 174.747 22.8788 174.747 25.1967C174.776 29.5901 176.027 33.3435 178.52 36.4567C181.168 39.8124 184.688 41.6454 189.072 41.9848ZM169.326 42.0624V40.9471H158.977V32.3736H160.636V31.2583H157.823V42.0624H169.326ZM158.968 29.9684V10.5908H168.909V9.42695H157.814V29.9684H158.968ZM150.152 9.42695V10.7556H152.431V9.42695H150.152ZM149.075 9.97007V9.42695H136.942V10.7556H143.945V42.0624H145.39V10.7556H149.114C149.056 10.3192 149.046 10.0574 149.075 9.97007ZM118.098 12.3268C116.081 10.4453 113.433 9.52393 110.146 9.55303C106.916 9.55303 104.297 10.4647 102.28 12.288C100.263 14.1404 99.2541 16.6038 99.2541 19.6977V31.9178C99.2541 35.0116 100.263 37.4944 102.28 39.3759C103.628 40.6173 105.335 41.4417 107.372 41.8587L109.399 39.793C107.052 39.7057 105.199 39.0074 103.851 37.6787C102.329 36.3015 101.591 34.3812 101.611 31.9178V19.6977C101.582 17.273 102.329 15.3527 103.851 13.9368C105.374 12.5305 107.469 11.8225 110.146 11.8225C112.822 11.8225 114.946 12.5402 116.527 13.9755C118.069 15.3527 118.845 17.2633 118.845 19.688V31.9081C118.845 34.42 118.069 36.35 116.527 37.7078C115.451 38.697 114.054 39.3371 112.347 39.6087L109.903 42.0527H110.107C113.424 42.0527 116.081 41.1508 118.098 39.3565C120.116 37.5623 121.153 35.0795 121.202 31.8984V19.6783C121.144 16.6135 120.116 14.1501 118.098 12.3268ZM93.8326 31.171C93.8326 29.6483 93.4641 28.3099 92.7173 27.1558C92.1936 26.3799 91.6311 25.6816 91.0201 25.0415C91.5147 24.4111 91.9705 23.7128 92.3876 22.9758C93.018 21.8119 93.3574 20.522 93.3768 19.0867H93.4156V18.3011C93.3865 15.5952 92.5912 13.4421 91.0104 11.8419C89.4683 10.2707 87.2377 9.48514 84.3475 9.48514C81.4768 9.48514 79.2558 10.2707 77.6846 11.8419C76.1135 13.4421 75.3279 15.5952 75.3279 18.3011V19.0867C75.3279 20.522 75.6286 21.8216 76.2396 22.9758C76.6566 23.7225 77.1124 24.4111 77.607 25.0415C76.996 25.6719 76.4432 26.3799 75.9486 27.1558C75.2309 28.3196 74.8721 29.658 74.8721 31.171V33.3241C74.8721 36.059 75.7449 38.2121 77.481 39.7833C78.8873 41.0538 80.6427 41.8103 82.7376 42.0624L84.5997 40.2003H84.3475C82.0005 40.2003 80.1481 39.5796 78.8 38.3382C77.5004 37.1259 76.8506 35.4577 76.8506 33.3241V31.171C76.8215 30.0654 77.0736 29.0761 77.5973 28.1936C78.1793 27.2819 78.8582 26.4963 79.6243 25.8368L80.536 25.1288L79.7116 24.3432C78.9939 23.7322 78.412 22.9758 77.9756 22.0641C77.5101 21.1815 77.2676 20.1826 77.2676 19.0867V18.3011C77.2676 16.1189 77.8786 14.4314 79.0909 13.2482C80.2547 12.0358 82.0005 11.4248 84.3475 11.4248C86.6655 11.4248 88.4015 12.0358 89.5653 13.2482C90.7291 14.4314 91.3013 16.1189 91.3013 18.3011V19.0479C91.3304 20.1535 91.0977 21.1621 90.5933 22.0738C90.1472 22.9855 89.5847 23.7419 88.8961 24.3529L88.0717 25.1385L88.9446 25.8465C89.769 26.506 90.477 27.2916 91.0589 28.2033C91.311 28.6494 91.4953 29.1149 91.6214 29.6095C91.7475 30.1042 91.8445 30.6279 91.9317 31.1807V33.3338C91.9317 35.4577 91.2528 37.1259 89.9047 38.3479C89.1871 39.0074 88.3627 39.4826 87.4219 39.7542L85.0652 42.0721C87.6062 41.9654 89.6623 41.1992 91.2334 39.793C92.9695 38.2218 93.852 36.0687 93.8811 33.3338V31.1807H93.8326V31.171Z" fill="white"/>
</g>
<mask id="mask2_223_852" style="mask-type:luminance" maskUnits="userSpaceOnUse" x="0" y="0" width="230" height="83">
<path d="M230 0H0V82.4858H230V0Z" fill="white"/>
</mask>
<g mask="url(#mask2_223_852)">
<path d="M223.443 69.9747H222.144C221.407 71.0512 220.224 71.5943 218.604 71.6137C218.061 71.6137 217.557 71.5459 217.12 71.4198V72.5254C217.566 72.6127 218.061 72.6515 218.604 72.6515C219.739 72.6515 220.718 72.4187 221.543 71.9532C222.367 71.4974 222.997 70.8379 223.443 69.9747ZM217.314 58.4626L220.127 61.0909C221.009 61.9152 221.707 62.7881 222.212 63.7289C222.716 64.6696 222.968 65.6104 222.968 66.5608V66.9682C222.988 67.6471 222.9 68.2387 222.716 68.7721H223.89C224.055 68.1999 224.132 67.6083 224.113 66.9973V66.5511C224.113 65.4164 223.822 64.3302 223.24 63.2924C222.658 62.2644 221.853 61.246 220.825 60.2568L218.109 57.6964C217.246 56.872 216.538 56.1058 215.976 55.3881C215.413 54.6705 215.142 53.7782 215.142 52.7017V52.5077C215.142 51.3924 215.452 50.4904 216.073 49.8018C216.693 49.1132 217.566 48.7738 218.682 48.7738C219.487 48.7738 220.136 48.8902 220.641 49.1326C221.145 49.3751 221.659 49.7339 222.192 50.2188L222.92 49.3945C222.328 48.8514 221.727 48.4343 221.106 48.1628C220.485 47.8912 219.68 47.7554 218.691 47.7554C217.401 47.7554 216.315 48.1725 215.423 49.0065C214.531 49.8406 214.075 50.9947 214.075 52.4689V52.7211C214.075 53.9237 214.375 54.9517 214.977 55.8052C215.559 56.6781 216.344 57.5606 217.314 58.4626ZM200.022 53.5939L200.468 54.4474H201.602L198.092 47.7457H197.869V72.186H198.848V53.8461C198.848 53.3224 198.838 52.7017 198.819 51.9937C198.8 51.2857 198.79 50.9268 198.79 50.9074C198.809 50.9753 198.955 51.3148 199.236 51.9549C199.498 52.5853 199.76 53.1284 200.022 53.5939ZM208.896 48.2791V66.5511C208.896 67.1233 208.905 67.7537 208.925 68.452C208.944 69.1503 208.954 69.5092 208.954 69.5286C208.915 69.4607 208.76 69.1212 208.498 68.5005C208.236 67.8798 207.974 67.327 207.722 66.8421L207.276 65.9886H206.141L209.623 72.6612H209.904V48.2791H208.896ZM181.11 72.6612C184.611 72.6612 187.588 71.4295 190.052 68.9661C191.274 67.7634 192.195 66.4638 192.816 65.077C193.436 63.6901 193.747 62.1092 193.747 60.3344C193.747 56.8138 192.515 53.8461 190.052 51.4215C187.588 49.0162 184.543 47.8039 180.916 47.7845C178.685 47.8039 176.58 48.3664 174.621 49.4624C172.701 50.5777 171.178 52.1295 170.034 54.1079L170.955 54.6123C171.983 52.7792 173.39 51.3536 175.164 50.3449C176.91 49.3363 178.83 48.8126 180.916 48.7932C184.291 48.8126 187.094 49.9376 189.324 52.1779C191.555 54.3698 192.69 57.0854 192.709 60.3344C192.709 61.954 192.428 63.4088 191.855 64.6793C191.283 65.9498 190.449 67.1524 189.353 68.2678C187.094 70.5275 184.349 71.6525 181.1 71.6525C179.073 71.6525 177.24 71.2161 175.601 70.3529L175.126 71.2743C176.929 72.1957 178.918 72.6612 181.11 72.6612ZM165.117 47.7457V72.6612H165.941V47.7457H165.117ZM159.269 47.7457V48.7544H161.005V47.7457H159.269ZM158.444 48.1531V47.7457H149.182V48.7544H154.526V72.6515H155.632V48.7544H158.473C158.434 48.4246 158.425 48.221 158.444 48.1531ZM137.204 71.7107C135.565 71.5847 134.188 70.9252 133.092 69.7225C131.996 68.5199 131.453 66.813 131.453 64.6017V47.7748H130.503V64.592C130.503 67.1233 131.104 69.063 132.316 70.4208C133.529 71.7786 135.158 72.5254 137.204 72.6515V72.1957V71.7107ZM144.313 47.7748V64.592C144.313 66.8033 143.732 68.5102 142.558 69.7128C141.384 70.9155 139.988 71.5653 138.368 71.6719V72.0696V72.1763V72.6515C140.395 72.5254 142.015 71.7786 143.237 70.4111C144.459 69.0436 145.07 67.1039 145.07 64.592V47.7748H144.313ZM126.391 72.6612V71.5846H117.885V68.4908H116.838V72.6612H126.391ZM117.885 66.425V47.7457H116.838V66.425H117.885ZM100.088 72.6612C103.589 72.6612 106.567 71.4295 109.03 68.9661C110.252 67.7634 111.174 66.4638 111.794 65.077C112.415 63.6901 112.725 62.1092 112.725 60.3344C112.725 56.8138 111.494 53.8461 109.03 51.4215C106.567 49.0162 103.522 47.8039 99.8943 47.7845C97.6636 47.8039 95.559 48.3664 93.5999 49.4624C91.6796 50.5777 90.157 52.1295 89.0126 54.1079L89.9339 54.6123C90.962 52.7792 92.3682 51.3536 94.1431 50.3449C95.8888 49.3363 97.8091 48.8126 99.8943 48.7932C103.269 48.8126 106.072 49.9376 108.303 52.1779C110.534 54.3698 111.668 57.0854 111.688 60.3344C111.688 61.954 111.406 63.4088 110.834 64.6793C110.262 65.9498 109.428 67.1524 108.332 68.2678C106.072 70.5275 103.328 71.6525 100.079 71.6525C98.0516 71.6525 96.2185 71.2161 94.5795 70.3529L94.1043 71.2743C95.9082 72.1957 97.8964 72.6612 100.088 72.6612ZM84.2506 69.9747H82.951C82.2139 71.0512 81.0307 71.5943 79.411 71.6137C78.8679 71.6137 78.3636 71.5459 77.9272 71.4198V72.5254C78.3733 72.6127 78.8679 72.6515 79.411 72.6515C80.5458 72.6515 81.5253 72.4187 82.3497 71.9532C83.1741 71.4974 83.8045 70.8379 84.2506 69.9747ZM78.1211 58.4626L80.9337 61.0909C81.8163 61.9152 82.5146 62.7881 83.0189 63.7289C83.5232 64.6696 83.7754 65.6104 83.7754 66.5608V66.9682C83.7948 67.6471 83.7075 68.2387 83.5232 68.7721H84.6967C84.8616 68.1999 84.9392 67.6083 84.9198 66.9973V66.5511C84.9198 65.4164 84.6288 64.3302 84.0469 63.2924C83.465 62.2644 82.66 61.246 81.632 60.2568L78.9164 57.6964C78.0532 56.872 77.3453 56.1058 76.7827 55.3881C76.2202 54.6705 75.9487 53.7782 75.9487 52.7017V52.5077C75.9487 51.3924 76.259 50.4904 76.8797 49.8018C77.5004 49.1132 78.3733 48.7738 79.4886 48.7738C80.2936 48.7738 80.9434 48.8902 81.4477 49.1326C81.952 49.3751 82.4661 49.7339 82.9995 50.2188L83.7269 49.3945C83.1353 48.8514 82.534 48.4343 81.9133 48.1628C81.2925 47.8912 80.4876 47.7554 79.4983 47.7554C78.2084 47.7554 77.1222 48.1725 76.2299 49.0065C75.3377 49.8406 74.8818 50.9947 74.8818 52.4689V52.7211C74.8818 53.9237 75.1825 54.9517 75.7838 55.8052C76.3657 56.6781 77.1513 57.5606 78.1211 58.4626Z" fill="white"/>
</g>
</svg>
