<svg width="142" height="177" viewBox="0 0 142 177" fill="none" xmlns="http://www.w3.org/2000/svg">
<path d="M70.1461 0.361665C46.7318 -2.28415 23.7519 9.75551 12.5276 30.9463C24.6933 8.88167 51.2698 -1.7744 75.6979 6.93979C83.5671 9.75551 90.35 14.2218 95.7812 19.8776C68.2392 30.9706 47.6008 56.7733 44.4628 88.5473C43.7386 95.9022 43.9558 103.136 45.0904 110.102C18.538 100.053 4.75497 70.3665 14.2897 43.3501C15.3518 40.3159 13.7345 37.0147 10.7172 35.9466C7.69986 34.8786 4.41703 36.4564 3.35493 39.4906C-7.36255 69.881 8.44815 103.257 38.6695 114.035C41.2041 114.933 43.7627 115.661 46.3214 116.195C53.394 145.614 76.229 169.402 106.161 177C78.0394 169.354 57.1113 145.663 52.4284 117.142C75.5531 119.423 98.1709 107.408 109.25 86.4841C98.026 106.825 74.5393 117.409 51.7767 112.117C51.3422 107.384 51.3422 102.529 51.825 97.6256C54.9147 66.3613 76.8324 41.5295 105.123 33.3251C111.109 45.5832 112.364 60.1231 107.464 74.0075C106.402 77.0417 107.947 80.3914 110.988 81.4595C114.006 82.5275 117.337 80.974 118.399 77.9155C124.047 61.9193 122.309 45.0977 115.044 31.189C120.837 30.3637 126.799 30.2181 132.882 30.8249C137.42 31.2861 141.499 27.9121 141.958 23.3487C142.417 18.7853 139.061 14.7316 134.523 14.2947C124.144 13.2509 114.054 14.2704 104.568 16.8919C98.6778 11.0177 91.4362 6.33295 83.0843 3.37158C78.8359 1.84235 74.4669 0.847135 70.1461 0.361665Z" fill="white" fill-opacity="0.09"/>
</svg>
