<svg width="71" height="71" viewBox="0 0 71 71" fill="none" xmlns="http://www.w3.org/2000/svg">
<g clip-path="url(#clip0_223_690)">
<path d="M54.9141 36.1657C54.5812 36.1657 54.2484 36.0547 54.0266 35.7219L53.25 34.7235C52.4734 33.725 52.3625 32.3938 52.9172 31.2844C53.1391 30.8407 53.3609 30.3969 53.4719 29.8422C53.9156 28.6219 54.9141 27.8454 56.2453 27.6235L59.7953 27.0688C60.35 26.9579 60.7938 26.5141 60.7938 25.9594V23.5188C60.7938 22.9641 60.35 22.5204 59.7953 22.4094L56.2453 21.8547C55.025 21.6329 53.9156 20.8563 53.4719 19.636C53.3609 19.1922 53.1391 18.7485 52.9172 18.3047C52.3625 17.0844 52.4734 15.7532 53.25 14.7547L55.4688 11.7594C55.8016 11.3157 55.8016 10.65 55.3578 10.3172L53.5828 8.65317C53.1391 8.20942 52.4734 8.20942 52.0297 8.54224L49.1453 10.65C48.1469 11.4266 46.7047 11.5375 45.5953 10.9829C45.1516 10.761 44.7078 10.5391 44.2641 10.4282C43.0438 9.98442 42.1563 8.98599 42.0453 7.76567L41.4906 4.21567C41.3797 3.66099 40.9359 3.21724 40.3813 3.21724H37.9406C37.3859 3.21724 36.8313 3.66099 36.8313 4.21567L36.2766 7.76567C36.1656 8.98599 35.2781 10.0954 34.0578 10.5391C33.6141 10.761 33.1703 10.8719 32.7266 11.0938C31.5063 11.6485 30.175 11.5375 29.1766 10.761L26.2922 8.65317C25.8484 8.32036 25.1828 8.32036 24.7391 8.76411L23.075 10.4282C22.6312 10.8719 22.6313 11.4266 22.9641 11.8704L25.1828 14.8657C25.9594 15.8641 26.0703 17.1954 25.5156 18.4157C25.2937 18.8594 25.1828 19.3032 24.9609 19.8579C24.5172 21.0782 23.5188 21.8547 22.1875 22.0766L18.6375 22.6313C18.0828 22.7422 17.6391 23.186 17.6391 23.7407V26.1813C17.6391 26.736 18.0828 27.1797 18.6375 27.2907L22.1875 27.8454C23.4078 28.0672 24.5172 28.8438 24.9609 30.0641C25.1828 30.6188 25.2937 31.0625 25.5156 31.3954C25.8484 32.061 25.9594 32.8375 25.8484 33.5032C25.7375 34.1688 25.1828 34.5016 24.5172 34.3907C23.8516 34.2797 23.5187 33.725 23.6297 33.0594C23.6297 32.8375 23.6297 32.6157 23.5188 32.3938C23.2969 31.8391 23.075 31.2844 22.8531 30.8407C22.7422 30.3969 22.2984 30.175 21.9656 30.0641L18.4156 29.5094C16.7516 29.2875 15.5312 27.8454 15.5312 26.0704V23.6297C15.5312 21.9657 16.7516 20.5235 18.4156 20.1907L21.9656 19.636C22.4094 19.525 22.7422 19.3032 22.8531 18.8594C23.075 18.3047 23.2969 17.75 23.5188 17.3063C23.7406 16.9735 23.6297 16.5297 23.4078 16.1969L21.1891 13.3125C20.1906 11.9813 20.3016 10.0954 21.5219 8.87505L23.2969 7.10005C24.2953 5.65786 26.1812 5.54692 27.5125 6.6563L30.3969 8.76411C30.7297 8.98599 31.1734 9.09692 31.6172 8.87505C32.0609 8.65317 32.6156 8.4313 33.1703 8.20942C33.6141 8.09849 33.8359 7.76567 33.9469 7.32192L34.5016 3.66099C34.7234 1.99692 36.1656 0.776611 37.9406 0.776611H40.3813C42.0453 0.776611 43.4875 1.99692 43.8203 3.66099L44.375 7.21099C44.4859 7.65474 44.7078 7.98755 45.1516 8.09849C45.7063 8.32036 46.2609 8.54224 46.7047 8.76411C47.0375 8.98599 47.5922 8.87505 47.925 8.65317L50.8094 6.54536C52.1406 5.54692 54.1375 5.65786 55.3578 6.87817L57.1328 8.65317C58.3531 9.87349 58.4641 11.7594 57.4656 13.0907L55.2469 16.086C55.025 16.4188 54.9141 16.8625 55.1359 17.1954C55.3578 17.75 55.5797 18.3047 55.8016 18.7485C55.9125 19.1922 56.2453 19.4141 56.6891 19.525L60.2391 20.0797C61.9031 20.3016 63.1234 21.7438 63.1234 23.5188V25.9594C63.1234 27.6235 61.9031 29.0657 60.2391 29.3985L56.5781 29.8422C56.1344 29.9532 55.8016 30.175 55.6906 30.6188C55.4688 31.2844 55.2469 31.7282 55.025 32.1719C54.8031 32.5047 54.9141 32.9485 55.1359 33.2813L55.8016 34.2797C56.1344 34.8344 56.0234 35.5 55.5797 35.8329C55.3578 36.0547 55.1359 36.1657 54.9141 36.1657Z" fill="#FF6A00"/>
<path d="M39.1611 36.1656C32.7268 36.1656 27.5127 31.0625 27.5127 24.7391C27.5127 18.4156 32.7268 13.3125 39.1611 13.3125C45.5955 13.3125 50.8096 18.4156 50.8096 24.7391C50.8096 30.9516 45.5955 36.1656 39.1611 36.1656ZM39.1611 15.5312C34.058 15.5312 29.8424 19.6359 29.8424 24.7391C29.8424 29.8422 34.058 33.9469 39.1611 33.9469C44.2643 33.9469 48.4799 29.8422 48.4799 24.7391C48.4799 19.6359 44.2643 15.5312 39.1611 15.5312Z" fill="#FF6A00"/>
<path d="M27.4011 59.2406C26.8464 59.2406 26.4027 58.9078 26.2917 58.3531C26.0699 57.7984 26.5136 57.1328 27.0683 56.9109C27.9558 56.6891 28.8433 56.5781 29.8417 56.5781H47.2589C49.0339 56.5781 50.698 56.0234 52.0292 55.025C58.5746 50.2547 64.1214 43.8203 68.5589 35.9438C68.7808 35.6109 68.7808 35.1672 68.6699 34.8344C68.5589 34.5016 68.3371 34.1688 67.8933 33.9469C67.1167 33.6141 66.3402 33.3922 65.4527 33.3922C63.5667 33.3922 61.7917 34.3906 60.7933 35.9438C60.5714 36.3875 59.1292 39.05 58.2417 39.9375C56.6886 41.3797 52.1402 43.4875 50.698 44.0422C50.1433 44.2641 49.4777 44.0422 49.1449 43.4875C48.923 42.9328 49.1449 42.2672 49.6996 41.9344C52.473 40.7141 55.6902 39.05 56.5777 38.1625C57.0214 37.8297 58.0199 36.0547 58.6855 34.7234C60.1277 32.3937 62.6792 31.0625 65.3417 31.0625C66.5621 31.0625 67.6714 31.2844 68.7808 31.8391C69.6683 32.2828 70.4449 33.0594 70.6667 34.0578C70.9996 35.0563 70.8886 36.0547 70.3339 36.9422C65.7855 45.0406 60.0167 51.6969 53.2496 56.6891C51.4746 58.0203 49.3667 58.6859 47.0371 58.6859H29.8417C29.0652 58.6859 28.3996 58.7969 27.7339 59.0188C27.623 59.2406 27.5121 59.2406 27.4011 59.2406Z" fill="#FF6A00"/>
<path d="M47.0371 49.5892H32.5043C31.8387 49.5892 31.3949 49.0345 31.3949 48.4798C31.3949 47.9251 31.9496 47.3704 32.5043 47.3704H47.0371C48.3684 47.3704 49.4777 46.261 49.4777 44.9298C49.4777 44.2642 49.2559 43.7095 48.7012 43.2657C48.2574 42.822 47.5918 42.6001 46.9262 42.6001H39.2715C37.1637 42.6001 35.0559 41.9345 33.2809 40.6032C32.1715 39.3829 30.6184 38.8282 28.9543 38.8282H23.4074C21.5215 38.8282 19.6355 39.4938 18.3043 40.8251L14.0887 44.8188C13.6449 45.2626 12.8684 45.2626 12.4246 44.8188C11.9809 44.3751 11.9809 43.5985 12.4246 43.1548L16.6402 39.161C18.4152 37.497 20.8559 36.4985 23.2965 36.4985H28.8434C30.9512 36.4985 33.059 37.1642 34.834 38.4954C36.1652 39.4938 37.7184 40.0485 39.3824 40.0485H47.0371C48.2574 40.0485 49.5887 40.6032 50.3652 41.3798C51.2527 42.2673 51.8074 43.4876 51.8074 44.7079C51.8074 47.4813 49.6996 49.5892 47.0371 49.5892Z" fill="#FF6A00"/>
<path d="M18.9703 70.2234C18.6375 70.2234 18.4156 70.1125 18.1938 69.8906L0.332813 52.2516C0.110938 52.0297 0 51.8078 0 51.475C0 51.1422 0.110938 50.9203 0.332813 50.6984L4.99219 46.15C6.43437 44.7078 8.98594 44.7078 10.4281 46.15L24.4062 59.9063C25.1828 60.5719 25.5156 61.5703 25.5156 62.5688C25.5156 63.5672 25.0719 64.5656 24.4062 65.3422L19.7469 69.8906C19.525 70.1125 19.3031 70.2234 18.9703 70.2234ZM2.77344 51.475L18.9703 67.45L22.8531 63.6781C23.1859 63.3453 23.2969 63.0125 23.2969 62.5688C23.2969 62.125 23.1859 61.7922 22.8531 61.4594L8.76406 47.7031C8.20938 47.1484 7.1 47.1484 6.54531 47.7031L2.77344 51.475Z" fill="#FF6A00"/>
</g>
<defs>
<clipPath id="clip0_223_690">
<rect width="71" height="71" fill="white"/>
</clipPath>
</defs>
</svg>
