<svg width="71" height="71" viewBox="0 0 71 71" fill="none" xmlns="http://www.w3.org/2000/svg">
<g clip-path="url(#clip0_223_659)">
<path d="M44.1743 46.5489C46.785 45.316 48.5914 42.659 48.5914 39.5802C48.5914 32.3748 42.7502 26.5336 35.5447 26.5336C28.3393 26.5336 22.498 32.3747 22.498 39.5802C22.498 42.8344 24.5161 45.6175 27.3692 46.7457" stroke="#FF6A00" stroke-width="2.2" stroke-miterlimit="10" stroke-linecap="round" stroke-linejoin="round"/>
<path d="M44.728 54.9862C45.1221 54.0543 45.3401 53.0298 45.3401 51.9543C45.3401 50.2016 44.7613 48.5842 43.7842 47.2827" stroke="#FF6A00" stroke-width="2.2" stroke-miterlimit="10" stroke-linecap="round" stroke-linejoin="round"/>
<path d="M27.5678 46.9513C26.4325 48.3046 25.749 50.0496 25.749 51.9543C25.749 53.0297 25.967 54.0543 26.3611 54.9862" stroke="#FF6A00" stroke-width="2.2" stroke-miterlimit="10" stroke-linecap="round" stroke-linejoin="round"/>
<path d="M11.1057 56.5953C14.927 56.5953 18.0249 53.4975 18.0249 49.6761C18.0249 45.8548 14.927 42.757 11.1057 42.757C7.28434 42.757 4.18652 45.8548 4.18652 49.6761C4.18652 53.4975 7.28434 56.5953 11.1057 56.5953Z" stroke="#FF6A00" stroke-width="2.2" stroke-miterlimit="10" stroke-linecap="round" stroke-linejoin="round"/>
<path d="M20.539 64.4934C19.7438 60.0044 15.8229 56.5953 11.1058 56.5953C5.81465 56.5953 1.52539 60.8846 1.52539 66.1758V69.4746H19.1219" stroke="#FF6A00" stroke-width="2.2" stroke-miterlimit="10" stroke-linecap="round" stroke-linejoin="round"/>
<path d="M59.8938 56.5953C63.7151 56.5953 66.813 53.4975 66.813 49.6761C66.813 45.8548 63.7151 42.757 59.8938 42.757C56.0724 42.757 52.9746 45.8548 52.9746 49.6761C52.9746 53.4975 56.0724 56.5953 59.8938 56.5953Z" stroke="#FF6A00" stroke-width="2.2" stroke-miterlimit="10" stroke-linecap="round" stroke-linejoin="round"/>
<path d="M52.2188 69.4746H69.4742V66.1758C69.4742 60.8846 65.1849 56.5953 59.8938 56.5953C55.392 56.5953 51.6156 59.7002 50.5889 63.8852" stroke="#FF6A00" stroke-width="2.2" stroke-miterlimit="10" stroke-linecap="round" stroke-linejoin="round"/>
<path d="M38.5176 49.4513L39.3034 52.2952C39.6845 53.7023 40.8417 54.7644 42.2764 55.0234L44.4108 55.4089C46.7397 55.8296 48.6351 57.5226 49.3148 59.7894L52.2194 69.4745H19.1221L22.0267 59.7896C22.7065 57.5227 24.6018 55.8298 26.9307 55.4091L29.0651 55.0235C30.4998 54.7644 31.657 53.7024 32.0381 52.2953L32.7663 49.6603" stroke="#FF6A00" stroke-width="2.2" stroke-miterlimit="10" stroke-linecap="round" stroke-linejoin="round"/>
<path d="M35.6867 49.6583C31.4143 49.7526 27.9658 46.3138 27.9658 42.0405L27.9685 38.8757C30.3607 38.8757 32.6092 37.7335 34.0201 35.8015L35.6707 33.5413L37.3169 35.7981C38.7275 37.7321 40.9771 38.8757 43.3709 38.8757V42.0405C43.3709 46.3138 39.959 49.7526 35.6867 49.6583Z" stroke="#FF6A00" stroke-width="2.2" stroke-miterlimit="10" stroke-linecap="round" stroke-linejoin="round"/>
<path d="M29.0645 55.0656L35.6693 59.4822L42.2781 55.0656" stroke="#FF6A00" stroke-width="2.2" stroke-miterlimit="10" stroke-linecap="round" stroke-linejoin="round"/>
<path d="M35.6689 59.4822V68.8026" stroke="#FF6A00" stroke-width="2.2" stroke-miterlimit="10" stroke-linecap="round" stroke-linejoin="round"/>
<path d="M35.6686 1.52539L39.2933 7.02498L45.6439 8.7728L41.5336 13.9197L41.8337 20.4994L35.6686 18.1809L29.5035 20.4994L29.8036 13.9197L25.6934 8.7728L32.0438 7.02498L35.6686 1.52539Z" stroke="#FF6A00" stroke-width="2.2" stroke-miterlimit="10" stroke-linecap="round" stroke-linejoin="round"/>
<path d="M19.5095 12.1968H12.8369" stroke="#FF6A00" stroke-width="2.2" stroke-miterlimit="10" stroke-linecap="round" stroke-linejoin="round"/>
<path d="M19.5094 6.64931L15.9277 5.26245" stroke="#FF6A00" stroke-width="2.2" stroke-miterlimit="10" stroke-linecap="round" stroke-linejoin="round"/>
<path d="M19.5094 17.7441L15.9277 19.131" stroke="#FF6A00" stroke-width="2.2" stroke-miterlimit="10" stroke-linecap="round" stroke-linejoin="round"/>
<path d="M51.8281 12.1968H58.5007" stroke="#FF6A00" stroke-width="2.2" stroke-miterlimit="10" stroke-linecap="round" stroke-linejoin="round"/>
<path d="M51.8281 6.64931L55.4097 5.26245" stroke="#FF6A00" stroke-width="2.2" stroke-miterlimit="10" stroke-linecap="round" stroke-linejoin="round"/>
<path d="M51.8281 17.7441L55.4097 19.131" stroke="#FF6A00" stroke-width="2.2" stroke-miterlimit="10" stroke-linecap="round" stroke-linejoin="round"/>
</g>
<defs>
<clipPath id="clip0_223_659">
<rect width="71" height="71" fill="white"/>
</clipPath>
</defs>
</svg>
