<svg width="23" height="23" viewBox="0 0 23 23" fill="none" xmlns="http://www.w3.org/2000/svg">
<path d="M19.1671 10.541H21.0838C21.0838 5.62478 17.3722 1.91699 12.4492 1.91699V3.83366C16.342 3.83366 19.1671 6.65403 19.1671 10.541Z" fill="white"/>
<path d="M12.4586 7.66681C14.474 7.66681 15.3336 8.52644 15.3336 10.5418H17.2503C17.2503 7.45119 15.5492 5.75015 12.4586 5.75015V7.66681ZM15.738 12.883C15.554 12.7154 15.312 12.626 15.0632 12.6337C14.8144 12.6414 14.5783 12.7456 14.405 12.9242L12.1117 15.2827C11.5597 15.1773 10.4499 14.8313 9.3076 13.6919C8.16527 12.5486 7.81931 11.4359 7.71677 10.8878L10.0733 8.59352C10.252 8.42019 10.3562 8.18414 10.3638 7.93535C10.3715 7.68655 10.2821 7.44452 10.1145 7.26048L6.57348 3.36677C6.40581 3.18216 6.17278 3.07017 5.92388 3.0546C5.67497 3.03904 5.4298 3.12111 5.24044 3.2834L3.16085 5.06686C2.99517 5.23314 2.89628 5.45445 2.88294 5.68881C2.86856 5.9284 2.59448 11.6036 6.99515 16.0062C10.8342 19.8444 15.6431 20.1251 16.9676 20.1251C17.1611 20.1251 17.28 20.1194 17.3116 20.1175C17.5458 20.1037 17.7667 20.0044 17.9326 19.8386L19.7151 17.7581C19.8775 17.5688 19.9597 17.3237 19.9444 17.0748C19.929 16.8259 19.8172 16.5928 19.6327 16.425L15.738 12.883Z" fill="white"/>
</svg>
