<svg width="126" height="77" viewBox="0 0 126 77" fill="none" xmlns="http://www.w3.org/2000/svg">
<g clip-path="url(#clip0_223_740)">
<path d="M62.2773 77.0002C61.8615 77.0002 61.4485 76.8913 61.0839 76.6818L57.2851 74.4377C56.7178 74.1211 56.9946 74.0092 57.1817 73.9446C57.9383 73.6803 58.0918 73.6206 58.8993 73.1631C58.9841 73.1148 59.0952 73.1318 59.1821 73.183L62.1005 74.911C62.2058 74.9678 62.3554 74.9678 62.4531 74.911L73.832 68.3571C73.9374 68.2975 74.0057 68.1752 74.0057 68.0502V54.9482C74.0057 54.8175 73.9374 54.701 73.8297 54.6356L62.4553 48.0875C62.35 48.0249 62.2104 48.0249 62.105 48.0875L50.7329 54.6356C50.6227 54.6981 50.5526 54.8203 50.5526 54.9454V68.0473C50.5526 68.1724 50.621 68.2918 50.7292 68.3514L53.8453 70.1476C55.5371 70.9917 56.5711 69.997 56.5711 68.9966V56.0652C56.5711 55.8804 56.7163 55.7383 56.9015 55.7383H58.3427C58.5221 55.7383 58.6703 55.8804 58.6703 56.0652V69.0023C58.6703 71.2532 57.4398 72.5464 55.3007 72.5464C54.6428 72.5464 54.1244 72.5464 52.6775 71.8358L49.6925 70.1192C48.9548 69.6929 48.499 68.8971 48.499 68.0473V54.9454C48.499 54.0928 48.9548 53.297 49.6925 52.8764L61.0828 46.3197C61.8034 45.9133 62.7604 45.9133 63.4753 46.3197L74.8514 52.8792C75.5862 53.3027 76.0448 54.0956 76.0448 54.9482V68.0502C76.0448 68.9 75.5862 69.6929 74.8514 70.1192L63.4753 76.6759C63.1107 76.8862 62.6977 76.9942 62.2762 76.9942" fill="#689F63"/>
<path d="M65.7922 67.9721C60.8134 67.9721 59.7695 65.6916 59.7695 63.7789C59.7695 63.597 59.9165 63.4521 60.0991 63.4521H61.5688C61.7311 63.4521 61.8679 63.57 61.8935 63.7301C62.1157 65.2244 62.7765 65.9781 65.7871 65.9781C68.1854 65.9781 69.2051 65.4376 69.2051 64.1686C69.2051 63.4382 68.9145 62.8953 65.189 62.5315C62.0729 62.2246 60.1475 61.5397 60.1475 59.0529C60.1475 56.7621 62.0843 55.3979 65.3285 55.3979C68.9715 55.3979 70.7773 56.6598 71.0052 59.3712C71.0137 59.465 70.9795 59.5559 70.9169 59.6241C70.8542 59.6895 70.7659 59.7293 70.6748 59.7293H69.1965C69.0427 59.7293 68.9088 59.6213 68.8775 59.4735C68.5215 57.9018 67.6613 57.3988 65.3228 57.3988C62.7053 57.3988 62.4005 58.3082 62.4005 58.9903C62.4005 59.8174 62.7594 60.0589 66.2913 60.525C69.789 60.9883 71.4495 61.642 71.4495 64.0947C71.4495 66.5673 69.3816 67.9855 65.7757 67.9855M79.6355 54.0906H80.0171C80.3305 54.0906 80.3903 53.8717 80.3903 53.7439C80.3903 53.4085 80.1596 53.4085 80.0314 53.4085H79.6383L79.6355 54.0906ZM79.1712 53.0163H80.0171C80.3077 53.0163 80.8773 53.0163 80.8773 53.6643C80.8773 54.1162 80.5868 54.21 80.4131 54.2668C80.752 54.2895 80.7748 54.5112 80.8204 54.8238C80.8432 55.0199 80.8802 55.3582 80.9485 55.4718H80.4273C80.4131 55.3582 80.3333 54.7329 80.3333 54.6988C80.2991 54.5595 80.2507 54.4913 80.077 54.4913H79.6469V55.4747H79.1712V53.0163ZM78.1544 54.2384C78.1544 55.2558 78.9775 56.08 79.9887 56.08C81.0084 56.08 81.8315 55.2388 81.8315 54.2384C81.8315 53.2181 80.997 52.4081 79.9858 52.4081C78.9889 52.4081 78.1515 53.2067 78.1515 54.2355M82.1847 54.2441C82.1847 55.4491 81.1963 56.4325 79.9915 56.4325C78.7952 56.4325 77.7983 55.4605 77.7983 54.2441C77.7983 53.0049 78.818 52.0557 79.9915 52.0557C81.1736 52.0557 82.1818 53.0078 82.1818 54.2441" fill="#689F63"/>
<path fill-rule="evenodd" clip-rule="evenodd" d="M27.0405 25.7349C27.0405 25.212 26.7642 24.7317 26.3119 24.4716L14.2477 17.5455C14.044 17.4261 13.8159 17.3636 13.5846 17.3551H13.4599C13.2286 17.3636 13.0004 17.4261 12.7934 17.5455L0.729731 24.4716C0.280272 24.7331 0 25.2134 0 25.7363L0.0264891 44.3917C0.0264891 44.6503 0.160359 44.8919 0.388222 45.0198C0.610388 45.1562 0.88952 45.1562 1.11169 45.0198L8.28367 40.9215C8.73655 40.6527 9.01284 40.1775 9.01284 39.6596V30.9444C9.01284 30.4243 9.28912 29.944 9.74057 29.6854L12.7939 27.9307C13.0207 27.8 13.2696 27.7352 13.5231 27.7352C13.7726 27.7352 14.0272 27.7994 14.2477 27.9304L17.2996 29.6845C17.7514 29.9432 18.0288 30.4235 18.0288 30.9436V39.6582C18.0288 40.1755 18.3088 40.653 18.7594 40.9201L25.9268 45.0155C26.1518 45.1491 26.4318 45.1491 26.656 45.0155C26.877 44.8876 27.0171 44.6461 27.0171 44.3874L27.0405 25.7349ZM83.9686 35.448C83.9686 35.5779 83.8994 35.6981 83.7864 35.7623L79.6427 38.1457C79.5302 38.2102 79.3912 38.2102 79.2789 38.1457L75.1347 35.7623C75.0208 35.6978 74.9524 35.5776 74.9524 35.448V30.6744C74.9524 30.5443 75.0208 30.4243 75.1318 30.359L79.2732 27.9716C79.3872 27.9063 79.5267 27.9063 79.6407 27.9716L83.7849 30.359C83.8989 30.4243 83.9672 30.5443 83.9672 30.6744L83.9686 35.448ZM85.088 0.0920217C84.8619 -0.033598 84.5867 -0.0301875 84.3634 0.0996953C84.1413 0.230431 84.004 0.469165 84.004 0.727793V19.2013C84.004 19.3832 83.9071 19.5508 83.7493 19.6418C83.5927 19.7327 83.3976 19.7327 83.2395 19.6418L80.2175 17.905C79.7674 17.6452 79.2132 17.6452 78.7614 17.905L66.6932 24.8547C66.2423 25.1134 65.9641 25.5937 65.9641 26.1109V40.0143C65.9641 40.5344 66.2423 41.0119 66.6932 41.2734L78.7614 48.2279C79.212 48.4866 79.7669 48.4866 80.2189 48.2279L92.2871 41.2705C92.7371 41.0091 93.0162 40.5316 93.0162 40.0115V5.36094C93.0162 4.83345 92.7286 4.34831 92.2671 4.09053L85.088 0.0920217ZM125.275 30.5488C125.724 30.289 126 29.8093 126 29.2921V25.9225C126 25.4041 125.723 24.9258 125.274 24.6649L113.283 17.7188C112.83 17.4574 112.275 17.4574 111.822 17.7188L99.7564 24.6677C99.3035 24.9292 99.0273 25.4067 99.0273 25.9268V39.8245C99.0273 40.3474 99.3092 40.8306 99.7621 41.0892L111.751 47.9073C112.192 48.1603 112.733 48.1631 113.18 47.9159L120.432 43.8943C120.66 43.7664 120.805 43.5249 120.805 43.2634C120.805 43.0019 120.666 42.7575 120.438 42.6296L108.298 35.6779C108.071 35.55 107.931 35.3084 107.931 35.0498V30.6901C107.931 30.4297 108.068 30.1899 108.296 30.0603L112.072 27.8861C112.297 27.7553 112.574 27.7553 112.799 27.8861L116.578 30.0603C116.803 30.1882 116.943 30.4297 116.943 30.6884V34.1159C116.943 34.3745 117.083 34.6161 117.308 34.7468C117.533 34.8747 117.812 34.8747 118.037 34.744L125.275 30.5488Z" fill="#9E9E9E"/>
<path fill-rule="evenodd" clip-rule="evenodd" d="M112.376 29.8986C112.461 29.8483 112.568 29.8483 112.655 29.8986L114.97 31.2315C115.057 31.2815 115.11 31.3736 115.11 31.4731V34.1418C115.11 34.2413 115.057 34.3333 114.97 34.3834L112.655 35.7163C112.568 35.7666 112.461 35.7666 112.376 35.7163L110.061 34.3834C109.973 34.3333 109.919 34.2413 109.919 34.1418V31.4731C109.919 31.3736 109.97 31.2815 110.059 31.2315L112.376 29.8986Z" fill="#689F63"/>
<mask id="mask0_223_740" style="mask-type:luminance" maskUnits="userSpaceOnUse" x="33" y="17" width="27" height="32">
<path d="M45.7787 17.7882L33.7789 24.6993C33.3294 24.9579 33.0537 25.4354 33.0537 25.9515V39.7833C33.0537 40.2997 33.3294 40.7769 33.7789 41.0355L45.7796 47.952C46.2282 48.2098 46.7813 48.2098 47.2294 47.952L59.228 41.0355C59.6752 40.7769 59.9515 40.2994 59.9515 39.7833V25.9515C59.9515 25.4354 59.6752 24.9579 59.2252 24.6993L47.2282 17.7882C47.0032 17.6595 46.7526 17.595 46.5019 17.595C46.2513 17.595 46.0006 17.6595 45.7756 17.7882" fill="white"/>
</mask>
<g mask="url(#mask0_223_740)">
<path d="M72.0777 23.5258L38.2643 6.98779L20.9268 42.279L54.7393 58.8178L72.0777 23.5258Z" fill="url(#paint0_linear_223_740)"/>
</g>
<mask id="mask1_223_740" style="mask-type:luminance" maskUnits="userSpaceOnUse" x="33" y="17" width="27" height="32">
<path d="M33.3516 40.6616C33.4663 40.8102 33.6099 40.939 33.7788 41.0356L44.0725 46.9685L45.7872 47.9518C46.0435 48.0996 46.3358 48.1621 46.6229 48.1408C46.7186 48.1331 46.8143 48.1152 46.9077 48.0888L59.5638 24.9657C59.4669 24.8605 59.3536 24.7724 59.2265 24.6985L51.3693 20.1711L47.2159 17.7866C47.098 17.7184 46.9701 17.6701 46.8399 17.636L33.3516 40.6616Z" fill="white"/>
</mask>
<g mask="url(#mask1_223_740)">
<path d="M18.7314 28.4173L42.6072 60.6615L74.1833 37.3832L50.3061 5.13989L18.7314 28.4173Z" fill="url(#paint1_linear_223_740)"/>
</g>
<mask id="mask2_223_740" style="mask-type:luminance" maskUnits="userSpaceOnUse" x="33" y="17" width="27" height="32">
<path d="M46.3588 17.6031C46.1574 17.6229 45.9606 17.6855 45.7791 17.7884L33.8135 24.6795L46.7162 48.1295C46.8957 48.1039 47.0723 48.0442 47.2318 47.9521L59.2316 41.0357C59.6019 40.8214 59.8554 40.4587 59.9323 40.0478L46.7789 17.6266C46.682 17.6076 46.5852 17.5977 46.4855 17.5977C46.4456 17.5977 46.4058 17.5996 46.3659 17.6033" fill="white"/>
</mask>
<g mask="url(#mask2_223_740)">
<path d="M33.8125 17.5977V48.13H59.9265V17.5977H33.8125Z" fill="url(#paint2_linear_223_740)"/>
</g>
</g>
<defs>
<linearGradient id="paint0_linear_223_740" x1="55.1608" y1="15.2308" x2="37.8855" y2="50.5494" gradientUnits="userSpaceOnUse">
<stop offset="0.3" stop-color="#3E863D"/>
<stop offset="0.5" stop-color="#55934F"/>
<stop offset="0.8" stop-color="#5AAD45"/>
</linearGradient>
<linearGradient id="paint1_linear_223_740" x1="30.8124" y1="44.7242" x2="62.341" y2="21.3774" gradientUnits="userSpaceOnUse">
<stop offset="0.57" stop-color="#3E863D"/>
<stop offset="0.72" stop-color="#619857"/>
<stop offset="1" stop-color="#76AC64"/>
</linearGradient>
<linearGradient id="paint2_linear_223_740" x1="33.8213" y1="32.8647" x2="59.9314" y2="32.8647" gradientUnits="userSpaceOnUse">
<stop offset="0.16" stop-color="#6BBF47"/>
<stop offset="0.38" stop-color="#79B461"/>
<stop offset="0.47" stop-color="#75AC64"/>
<stop offset="0.7" stop-color="#659E5A"/>
<stop offset="0.9" stop-color="#3E863D"/>
</linearGradient>
<clipPath id="clip0_223_740">
<rect width="126" height="77" fill="white"/>
</clipPath>
</defs>
</svg>
