<svg width="20" height="20" viewBox="0 0 20 20" fill="none" xmlns="http://www.w3.org/2000/svg">
<path d="M10 8.2C11.5111 8.2 12.72 6.985 12.72 5.5C12.72 4.015 11.5111 2.8 10 2.8C8.48889 2.8 7.28 4.015 7.28 5.5C7.28 6.985 8.48889 8.2 10 8.2ZM10 10C7.51111 10 5.50222 7.984 5.50222 5.5C5.50222 3.016 7.51111 1 10 1C12.4889 1 14.4978 3.016 14.4978 5.5C14.4978 7.984 12.4889 10 10 10ZM3.77778 17.2H16.2222V16.003C16.2222 14.428 14.1689 12.799 10 12.799C5.83111 12.799 3.77778 14.428 3.77778 16.003V17.2ZM10 10.999C15.92 10.999 18 13.996 18 16.003V19H2V16.003C2 13.996 4.08 10.999 10 10.999Z" fill="white"/>
</svg>
