<svg width="71" height="72" viewBox="0 0 71 72" fill="none" xmlns="http://www.w3.org/2000/svg">
<path d="M35.0749 0.0396542C32.1475 0.0533617 29.3518 0.304961 26.892 0.743602C19.6455 2.03372 18.3298 4.73405 18.3298 9.71391V16.2908H35.4541V18.4831H18.3298H11.9032C6.92641 18.4831 2.56858 21.4976 1.20551 27.2322C-0.366777 33.8053 -0.436517 37.9071 1.20551 44.7705C2.42277 49.8794 5.32974 53.5196 10.3065 53.5196H16.1943V45.6354C16.1943 39.9395 21.0846 34.9152 26.892 34.9152H43.9963C48.7575 34.9152 52.5584 30.9647 52.5584 26.1461V9.71391C52.5584 5.03722 48.6434 1.52412 43.9963 0.743602C41.0546 0.25013 38.0023 0.0259464 35.0749 0.0396542ZM25.8142 5.32932C27.583 5.32932 29.0275 6.80875 29.0275 8.62782C29.0275 10.4404 27.583 11.9062 25.8142 11.9062C24.039 11.9062 22.6009 10.4404 22.6009 8.62782C22.6009 6.80875 24.039 5.32932 25.8142 5.32932Z" fill="url(#paint0_linear_223_760)"/>
<path d="M54.7317 18.4807V26.0854C54.7317 31.9812 49.7437 36.9435 44.0557 36.9435H26.9862C22.3105 36.9435 18.4414 40.9536 18.4414 45.6459V61.953C18.4414 66.5941 22.4687 69.324 26.9862 70.6555C32.3957 72.2495 37.5832 72.5375 44.0557 70.6555C48.3581 69.4072 52.6005 66.895 52.6005 61.953V55.4262H35.5309V53.2506H52.6005H61.1453C66.1119 53.2506 67.9627 49.7789 69.69 44.5681C71.4742 39.2036 71.3983 34.0448 69.69 27.1632C68.4626 22.2084 66.1183 18.4807 61.1453 18.4807H54.7317ZM45.1313 59.7774C46.9029 59.7774 48.3381 61.232 48.3381 63.0309C48.3381 64.8361 46.9029 66.3043 45.1313 66.3043C43.3661 66.3043 41.9245 64.8361 41.9245 63.0309C41.9245 61.232 43.3661 59.7774 45.1313 59.7774Z" fill="url(#paint1_linear_223_760)"/>
<defs>
<linearGradient id="paint0_linear_223_760" x1="-2.13242e-07" y1="0.0390623" x2="39.7425" y2="33.6452" gradientUnits="userSpaceOnUse">
<stop stop-color="#5A9FD4"/>
<stop offset="1" stop-color="#306998"/>
</linearGradient>
<linearGradient id="paint1_linear_223_760" x1="44.7206" y1="62.4821" x2="30.5437" y2="42.6577" gradientUnits="userSpaceOnUse">
<stop stop-color="#FFD43B"/>
<stop offset="1" stop-color="#FFE873"/>
</linearGradient>
</defs>
</svg>
